HIERARCHY
ROOT Hips
{
	OFFSET	0.00	0.00	0.00
	CHANNELS 6 Xposition Yposition Zposition Zrotation Xrotation Yrotation
	JOINT LeftUpLeg
	{
		OFFSET	 0.126116	-0.014019	-0.065224
		CHANNELS 3 Zrotation Xrotation Yrotation
		JOINT LeftLeg
		{
			OFFSET	 0.000000	 0.000000	 0.569914
			CHANNELS 3 Zrotation Xrotation Yrotation
			JOINT LeftFoot
			{
				OFFSET	 0.000000	 0.000000	 0.544423
				CHANNELS 3 Zrotation Xrotation Yrotation
				JOINT LeftToeBase
				{
					OFFSET	 0.000000	 0.000000	 0.207117
					CHANNELS 3 Zrotation Xrotation Yrotation
					End Site
					{
						OFFSET	 0.000000	 0.000000	 0.207117
					}
				}
			}
		}
	}
	JOINT RightUpLeg
	{
		OFFSET	-0.124023	-0.008373	-0.065224
		CHANNELS 3 Zrotation Xrotation Yrotation
		JOINT RightLeg
		{
			OFFSET	 0.000000	 0.000000	 0.570047
			CHANNELS 3 Zrotation Xrotation Yrotation
			JOINT RightFoot
			{
				OFFSET	 0.000000	 0.000000	 0.544354
				CHANNELS 3 Zrotation Xrotation Yrotation
				JOINT RightToeBase
				{
					OFFSET	 0.000000	 0.000000	 0.207540
					CHANNELS 3 Zrotation Xrotation Yrotation
					End Site
					{
						OFFSET	 0.000000	 0.000000	 0.207540
					}
				}
			}
		}
	}
	JOINT Spine
	{
		OFFSET	 0.000184	-0.007763	 0.117403
		CHANNELS 3 Zrotation Xrotation Yrotation
		JOINT Spine1
		{
			OFFSET	 0.000000	 0.000000	 0.137269
			CHANNELS 3 Zrotation Xrotation Yrotation
			JOINT Spine2
			{
				OFFSET	 0.000000	 0.000000	 0.156879
				CHANNELS 3 Zrotation Xrotation Yrotation
				JOINT LeftShoulder
				{
					OFFSET	 0.080501	-0.002496	 0.160144
					CHANNELS 3 Zrotation Xrotation Yrotation
					JOINT LeftArm
					{
						OFFSET	 0.000000	 0.000000	 0.164363
						CHANNELS 3 Zrotation Xrotation Yrotation
						JOINT LeftForeArm
						{
							OFFSET	 0.000000	 0.000000	 0.364576
							CHANNELS 3 Zrotation Xrotation Yrotation
							JOINT LeftHand
							{
								OFFSET	 0.000000	 0.000000	 0.360812
								CHANNELS 3 Zrotation Xrotation Yrotation
								JOINT LeftHandIndex1
								{
									OFFSET	 0.000000	 0.000000	 0.086006
									CHANNELS 3 Zrotation Xrotation Yrotation
									JOINT LeftHandIndex2
									{
										OFFSET	 0.000000	 0.000000	 0.047236
										CHANNELS 3 Zrotation Xrotation Yrotation
										JOINT LeftHandIndex3
										{
											OFFSET	-0.004284	-0.000551	 0.038166
											CHANNELS 3 Zrotation Xrotation Yrotation
											End Site
											{
												OFFSET	-0.004284	-0.000551	 0.038166
											}
										}
									}
								}
							}
						}
					}
				}
				JOINT Neck
				{
					OFFSET	 0.000000	 0.000000	 0.176489
					CHANNELS 3 Zrotation Xrotation Yrotation
					JOINT Head
					{
						OFFSET	 0.000000	-0.001747	 0.077940
						CHANNELS 3 Zrotation Xrotation Yrotation
						End Site
						{
							OFFSET	 0.000000	-0.001747	 0.077940
						}
					}
				}
				JOINT RightShoulder
				{
					OFFSET	-0.080363	 0.000306	 0.159706
					CHANNELS 3 Zrotation Xrotation Yrotation
					JOINT RightArm
					{
						OFFSET	 0.000000	 0.000000	 0.164196
						CHANNELS 3 Zrotation Xrotation Yrotation
						JOINT RightForeArm
						{
							OFFSET	 0.000000	 0.000000	 0.365611
							CHANNELS 3 Zrotation Xrotation Yrotation
							JOINT RightHand
							{
								OFFSET	 0.000000	 0.000000	 0.360648
								CHANNELS 3 Zrotation Xrotation Yrotation
								JOINT RightHandIndex1
								{
									OFFSET	 0.000000	 0.000000	 0.069977
									CHANNELS 3 Zrotation Xrotation Yrotation
									JOINT RightHandIndex2
									{
										OFFSET	 0.000000	 0.000000	 0.052305
										CHANNELS 3 Zrotation Xrotation Yrotation
										JOINT RightHandIndex3
										{
											OFFSET	 0.009002	-0.000782	 0.042196
											CHANNELS 3 Zrotation Xrotation Yrotation
											End Site
											{
												OFFSET	 0.009002	-0.000782	 0.042196
											}
										}
									}
								}
							}
						}
					}
				}
			}
		}
	}
}
MOTION
Frames:    7
Frame Time: 0.03333334
-0.476152	-7.346733	 1.191324	-9.422772	 10.118240	 3.209409	 5.701578	-20.841460	 175.102900	-4.156344	-37.604460	-0.975404	-1.106800	 84.200660	-0.456485	-2.333748	 36.452710	-0.184321	-2.114342	-22.723040	-178.938200	-1.962391	-41.738260	-0.993537	-1.567099	 88.040950	 0.819095	 2.395379	 25.547400	-0.060364	 0.414250	 5.214620	-1.554618	 0.772374	 4.019151	-2.190654	 0.555235	 1.610537	 0.028937	-102.243900	 88.706990	-166.902800	 63.906290	 70.680040	-72.692380	-6.527517	-4.546257	-19.206010	 7.056432	-10.106850	-5.391072	-1.692386	-12.011200	 7.819593	-5.213516	-0.193813	 3.566525	-1.378229	 35.397820	-2.634230	 0.643632	 1.317843	 0.623876	 0.433498	 3.163618	 0.146956	 96.218770	 87.861820	 170.735400	-62.457900	 79.054340	 74.181690	-1.933033	-14.495750	 24.204970	-27.040530	-10.971790	 9.730452	-8.123612	-4.306262	-38.807060	 5.070815	-0.697434	-9.399699	-2.350882	 35.473990	 5.254307
-0.475351	-7.345771	 1.186920	-9.510398	 9.503826	 3.102764	 5.634634	-20.711140	 175.449400	-4.211579	-36.265610	-0.955779	-1.153187	 83.499620	-0.461297	-2.333714	 36.456310	-0.184414	-2.038970	-22.700020	-178.937200	-2.004678	-40.380800	-0.989053	-1.500028	 87.059290	 0.689990	 2.393679	 26.069620	-0.049427	 0.433830	 5.224040	-1.555230	 0.794248	 3.819570	-2.061860	 0.592331	 1.512066	 0.031379	-101.581700	 88.593610	-167.484300	 54.801550	 68.107700	-64.767160	-4.933951	-4.328883	-17.937020	 7.087818	-10.115360	-5.389409	-1.834056	-11.066500	 7.566358	-5.213516	-0.193813	 3.566525	-1.378229	 35.397820	-2.634230	 0.688865	 1.271328	 0.605502	 0.455942	 3.033520	 0.264486	 96.571830	 87.888170	 170.273600	-50.475560	 75.809170	 63.856340	-2.006747	-12.781330	 23.291560	-24.582880	-10.976330	 9.730176	-7.434274	-4.177842	-37.149350	 5.070815	-0.697434	-9.399699	-2.350882	 35.473990	 5.254307
-0.475545	-7.344127	 1.192240	-9.551242	 9.369642	 3.079005	 5.572117	-20.529310	 175.422900	-4.307624	-36.390770	-1.057129	-1.215413	 83.545210	-0.530426	-2.331899	 36.660890	-0.189480	-1.911823	-22.467350	-178.943900	-2.013531	-40.316830	-0.921067	-1.527065	 86.830650	 0.785562	 2.393837	 26.021030	-0.050446	 0.424911	 5.303740	-1.558235	 0.809964	 3.931621	-2.058870	 0.644509	 1.592027	 0.033695	-101.454100	 88.594030	-167.647000	 54.367580	 68.147340	-64.226290	-4.829983	-4.300339	-17.579180	 7.201765	-10.136500	-5.386133	-2.102050	-11.262620	 6.925047	-5.213516	-0.193813	 3.566525	-1.378229	 35.397820	-2.634230	 0.737722	 1.365486	 0.652084	 0.511971	 3.087815	 0.321848	 96.628040	 87.903140	 170.218400	-51.059210	 75.715430	 64.411700	-2.183675	-12.749360	 23.201310	-24.603330	-10.990020	 9.729625	-7.411662	-4.226874	-37.054150	 5.070815	-0.697434	-9.399699	-2.350882	 35.473990	 5.254307
-0.476567	-7.345661	 1.191828	-9.494759	 9.198969	 3.027212	 5.506461	-20.349180	 175.399800	-4.326540	-36.469220	-1.111960	-1.252533	 83.623980	-0.565793	-2.330011	 36.870190	-0.194691	-1.804041	-22.042040	-178.965500	-1.967000	-39.834430	-0.833272	-1.519692	 86.563330	 0.868262	 2.394733	 25.749730	-0.056141	 0.385864	 5.345619	-1.551293	 0.799068	 4.075353	-2.057855	 0.687819	 1.724795	 0.035164	-101.261600	 88.602820	-167.910400	 53.897580	 68.284550	-63.644800	-4.776988	-4.277037	-17.183650	 7.359799	-10.168110	-5.381567	-2.653597	-11.503550	 5.625347	-5.213516	-0.193813	 3.566525	-1.378229	 35.397820	-2.634230	 0.765986	 1.442929	 0.689767	 0.575009	 3.262384	 0.372808	 96.713710	 87.922550	 170.129900	-51.610660	 75.660910	 64.874050	-2.345147	-12.719720	 23.117490	-24.621190	-11.011350	 9.729381	-7.375272	-4.247655	-36.945170	 5.070815	-0.697434	-9.399699	-2.350882	 35.473990	 5.254307
-0.478087	-7.347702	 1.191508	-9.337530	 9.047994	 2.951093	 5.429373	-20.162300	 175.379500	-4.300337	-36.500980	-1.143605	-1.300952	 83.715190	-0.562039	-2.328047	 37.083560	-0.200044	-1.726487	-21.359310	-178.993800	-1.809632	-39.009020	-0.698024	-1.417516	 86.423410	 0.926550	 2.395206	 25.603820	-0.059189	 0.305007	 5.307532	-1.538223	 0.749929	 4.247412	-2.054643	 0.718058	 1.906979	 0.035570	-100.977700	 88.612810	-168.292300	 53.455470	 68.463660	-63.087870	-4.725042	-4.255991	-16.755560	 7.552517	-10.211960	-5.375496	-3.275604	-11.734860	 4.172488	-5.213516	-0.193813	 3.566525	-1.378229	 35.397820	-2.634230	 0.768410	 1.541850	 0.742407	 0.643477	 3.512196	 0.363899	 96.844570	 87.951480	 169.993800	-52.104230	 75.645770	 65.204860	-2.496055	-12.690290	 23.036380	-24.635290	-11.042010	 9.729537	-7.326247	-4.241317	-36.824310	 5.070815	-0.697434	-9.399699	-2.350882	 35.473990	 5.254307
-0.479725	-7.349858	 1.191318	-9.133771	 8.950045	 2.864526	 5.345663	-19.990260	 175.364300	-4.237750	-36.485500	-1.153998	-1.333834	 83.782150	-0.547946	-2.326247	 37.276620	-0.204898	-1.736901	-20.593650	-178.979300	-1.564628	-38.079120	-0.561253	-1.285114	 86.431530	 0.976441	 2.393692	 26.066120	-0.049502	 0.209732	 5.220302	-1.524668	 0.682688	 4.410436	-2.047109	 0.733069	 2.097861	 0.035094	-100.632200	 88.615350	-168.735300	 53.142940	 68.625960	-62.679140	-4.664303	-4.238047	-16.371180	 7.736472	-10.258800	-5.370738	-3.498894	-11.862880	 3.653039	-5.213516	-0.193813	 3.566525	-1.378229	 35.397820	-2.634230	 0.752735	 1.640248	 0.806966	 0.702468	 3.780900	 0.297070	 97.015640	 87.988310	 169.817300	-52.442190	 75.668490	 65.327450	-2.618076	-12.663590	 22.966900	-24.642730	-11.078160	 9.730221	-7.274721	-4.212440	-36.713850	 5.070815	-0.697434	-9.399699	-2.350882	 35.473990	 5.254307
-0.481512	-7.351912	 1.191235	-8.914491	 8.897721	 2.784084	 5.248894	-19.823860	 175.352800	-4.158177	-36.430480	-1.158790	-1.371058	 83.806950	-0.523148	-2.324627	 37.448680	-0.209234	-1.846986	-19.870420	-179.018900	-1.273953	-37.145470	-0.461110	-1.398856	 86.530730	 1.246395	 2.391402	 26.717220	-0.035763	 0.118764	 5.115326	-1.528646	 0.616585	 4.557292	-2.033658	 0.741836	 2.287536	 0.034288	-100.226000	 88.603670	-169.228800	 52.877410	 68.825290	-62.364480	-4.671302	-4.222461	-16.031860	 7.906070	-10.309120	-5.367116	-3.377095	-11.912720	 3.934085	-5.213516	-0.193813	 3.566525	-1.378229	 35.397820	-2.634230	 0.733098	 1.733225	 0.880586	 0.753576	 4.054025	 0.220825	 97.239990	 88.036160	 169.588800	-52.684390	 75.712500	 65.329180	-2.719372	-12.637390	 22.904170	-24.643470	-11.120330	 9.731451	-7.222716	-4.166086	-36.615120	 5.070815	-0.697434	-9.399699	-2.350882	 35.473990	 5.254307
